<?xml version="1.0"?>
<svg version="1.1" id="圖層_1" xmlns="http://www.w3.org/2000/svg" x="0" y="0" viewBox="0 0 100 100" xml:space="preserve"><path d="M7.5 77.576a8.302 8.302 0 0 0 8.302 8.302h68.395a8.302 8.302 0 0 0 8.302-8.302V43.564h-85v34.012z" fill="#fff" stroke="#333" stroke-width="4" stroke-miterlimit="10"/><path d="M84.198 26.576H72.599l-3.403-8.767a5.43 5.43 0 0 0-5.142-3.687H49.946a5.43 5.43 0 0 0-5.142 3.687l-3.403 8.767h-9.413V24.25a3.25 3.25 0 0 0-3.25-3.25h-9.25a3.25 3.25 0 0 0-3.25 3.25v2.326h-.435a8.302 8.302 0 0 0-8.302 8.302v8.686h85v-8.686a8.304 8.304 0 0 0-8.303-8.302z" fill="#fff" stroke="#333" stroke-width="4" stroke-miterlimit="10"/><circle cx="57" cy="56.227" r="18.977" fill="#fff" stroke="#333" stroke-width="4" stroke-miterlimit="10"/><path d="M44.93 51.498c2.392-4.591 6.001-7.281 10.246-7.736" fill="#fff" stroke="#333" stroke-width="4" stroke-linecap="round" stroke-miterlimit="10"/><path fill="none" stroke="#333" stroke-width="6" stroke-linecap="round" stroke-miterlimit="10" d="M19.388 34.942h8.622"/><path d="M23.699 62.315v-9.739 9.739z" fill="none" stroke="#333" stroke-width="4" stroke-linecap="round" stroke-linejoin="round" stroke-miterlimit="10"/><metadata xmlns:d="https://loading.io/stock/"><d:name>camera</d:name><d:tags>dslr,compact,lens,photo,film,photographer,photography,camera,camera</d:tags><d:license>by</d:license><d:slug>l11kdd</d:slug></metadata></svg>